<?xml version="1.0" encoding="UTF-8" standalone="no"?>
<svg
   xmlns:dc="http://purl.org/dc/elements/1.1/"
   xmlns:cc="http://creativecommons.org/ns#"
   xmlns:rdf="http://www.w3.org/1999/02/22-rdf-syntax-ns#"
   xmlns:svg="http://www.w3.org/2000/svg"
   xmlns="http://www.w3.org/2000/svg"
   id="svg8"
   version="1.1"
   viewBox="0 0 64 100"
   height="100mm"
   width="64mm">
  <defs
     id="defs2" />
  <metadata
     id="metadata5">
    <rdf:RDF>
      <cc:Work
         rdf:about="">
        <dc:format>image/svg+xml</dc:format>
        <dc:type
           rdf:resource="http://purl.org/dc/dcmitype/StillImage" />
        <dc:title></dc:title>
      </cc:Work>
    </rdf:RDF>
  </metadata>
  <g
     transform="translate(0,-197)"
     id="layer1">
    <path
       d="m 5.4470518,201.46337 c 0.771022,3.30172 2.260507,6.3651 3.71821,9.40509 1.6347922,3.13679 3.3909322,6.22534 5.4590322,9.10035 1.119751,1.55665 1.618887,2.11203 2.818958,3.56194 1.47914,1.78058 3.06696,3.47145 4.495916,5.29418 0.775404,0.98908 0.90746,1.23159 1.598091,2.27111 0.244613,0.40724 0.503042,0.80651 0.733841,1.22174 0.113797,0.20473 1.375746,2.67617 1.46626,2.85049 0.824616,1.5881 1.662821,3.16385 2.542106,4.72231 1.644967,2.83512 3.493743,5.5449 5.474494,8.15456 1.166455,1.39387 2.213181,2.87252 3.192594,4.40135 1.361554,2.34239 3.0348,4.48303 4.720058,6.59758 0.3116,0.38177 0.6232,0.76355 0.93481,1.14532 0.52621,0.64469 1.14268,1.38767 1.64781,2.05311 0.76784,1.01152 1.49088,2.05908 2.23997,3.08456 1.5121,2.02144 2.98548,4.07178 4.50482,6.08772 0.70551,0.97737 1.52414,1.86113 2.31163,2.77034 0.68491,0.72183 1.19842,1.57592 1.75047,2.39842 0.71981,1.04835 1.29703,2.18043 1.89862,3.29827 0.67818,1.32833 1.40891,2.62686 2.18179,3.90206 0.46629,0.67492 0.8368,1.40747 1.20364,2.13911 0.2622,0.51608 0.54614,1.0222 0.91554,1.46982 0.11365,0.0748 0.15891,0.21756 0.26274,0.30095 0.13994,0.1124 0.11317,-0.13556 0.0937,-0.12579 -0.79339,0.39885 -1.5065,0.95375 -2.32075,1.30808 -0.0974,0.0424 0.0275,-0.21075 0.0412,-0.31612 0.01,-1.38604 -0.18695,-2.76872 -0.41919,-4.13266 -0.2691,-1.45208 -0.49233,-2.90994 -0.69067,-4.37324 -0.17014,-1.4877 -0.2063,-2.9866 -0.224,-4.48258 -0.0745,-1.36421 -0.34528,-2.70872 -0.60501,-4.04736 -0.0963,-0.4748 -0.23067,-0.94248 -0.39368,-1.39868 -0.005,-0.0132 -0.19415,-0.52973 -0.25245,-0.57476 -0.0313,-0.0242 -0.0299,0.0732 -0.0449,0.10982 0.78073,-0.34669 1.49404,-0.93827 2.3422,-1.04006 0.25225,-0.0303 -0.0288,0.50781 -0.0238,0.76182 0.007,0.35619 0.0292,0.71218 0.0602,1.06709 0.13057,1.49638 0.3595,2.9876 0.56296,4.47512 0.3436,2.68796 0.8919,5.34404 1.54882,7.97142 0.3847,1.41133 0.66739,2.84028 0.79981,4.29643 0.0538,1.05149 0.12962,2.10132 0.16804,3.15352 -0.0359,0.87292 0.17027,1.83133 0.04,2.69658 -0.021,0.13961 -0.0703,0.27349 -0.10542,0.41023 -0.64116,1.10305 -0.40882,0.82126 -2.84696,1.72657 -0.18127,0.0673 -0.35454,-0.1552 -0.52605,-0.24448 -0.75451,-0.3928 -1.44261,-0.90687 -2.1434,-1.38501 -1.74485,-1.1742 -3.5121,-2.31519 -5.27711,-3.45898 -1.51507,-0.9517 -2.82687,-2.17894 -4.2391,-3.26948 -1.06615,-0.78876 -2.1422,-1.58546 -3.34926,-2.14642 -0.66804,-0.26637 -1.2985,-0.61509 -1.9801,-0.84475 -1.08859,-0.27788 -2.123099,-0.71647 -3.202178,-1.0279 -0.504137,-0.14284 -1.023043,-0.20726 -1.541047,-0.27236 -0.0469,-0.006 -0.178814,0.007 -0.140312,-0.0206 0.805696,-0.57377 1.648466,-1.09361 2.472698,-1.64041 1.321919,-0.0576 2.463029,0.41127 3.644079,0.95152 1.72424,0.84642 3.45935,1.68143 5.13125,2.62911 0.95525,0.56893 1.95549,1.05571 2.87356,1.68516 0.74898,0.54334 1.53048,1.03693 2.31344,1.52912 0.63598,0.44317 1.34272,0.74008 2.0752,0.9783 0.4194,0.20134 0.85811,0.35111 1.26858,0.5705 0,0 -2.30903,1.51456 -2.30903,1.51456 v 0 c -0.40298,-0.20169 -0.82166,-0.37028 -1.23666,-0.5454 -0.72746,-0.2747 -1.41812,-0.61369 -2.05556,-1.06468 -0.78733,-0.49979 -1.59552,-0.96966 -2.34695,-1.5236 -0.88143,-0.63687 -1.85108,-1.13529 -2.76143,-1.72901 -1.64066,-0.96516 -3.33624,-1.84606 -5.06953,-2.63212 -1.245398,-0.48889 -2.402198,-0.88943 -3.757288,-0.71432 0.685474,-0.53516 1.354047,-1.0927 2.056429,-1.60547 0.02819,-0.0206 0.06605,0.023 0.09997,0.0312 0.07949,0.0193 0.159774,0.0353 0.239964,0.0515 0.4221,0.0852 0.845315,0.16639 1.256875,0.29633 1.07271,0.34483 2.12161,0.75956 3.21902,1.02481 0.69505,0.22939 1.36176,0.53322 2.01035,0.87251 1.16175,0.64006 2.20397,1.47045 3.26455,2.26169 1.39461,1.10149 2.73132,2.28141 4.22135,3.25638 1.74413,1.17024 3.47502,2.36068 5.25956,3.46957 0.69762,0.44024 1.42803,0.98374 2.21834,1.25448 0.15769,0.054 0.61446,-0.0178 0.49109,0.0943 -0.5166,0.46946 -2.81972,1.96159 -1.7925,1.08276 0.0497,-0.12048 0.1179,-0.2349 0.14907,-0.36145 0.0752,-0.30534 0.0507,-0.6659 0.0479,-0.97341 -0.005,-0.56924 -0.0144,-1.13837 -0.0409,-1.70711 -0.0595,-1.04821 -0.15342,-2.09406 -0.16805,-3.14429 -0.0933,-1.46005 -0.31894,-2.90458 -0.65374,-4.3294 -0.57273,-2.66844 -1.06298,-5.35673 -1.42313,-8.0625 -0.16449,-1.11501 -0.28507,-1.97038 -0.47023,-3.07846 -0.27908,-1.67012 -0.18728,-0.89223 -0.38233,-2.37182 -0.0324,-0.24607 -0.25561,-0.5561 -0.0882,-0.73937 0.672,-0.73572 1.59738,-1.19157 2.39607,-1.78735 0.0474,0.0483 0.10731,0.0869 0.14229,0.14487 0.0498,0.0824 0.0737,0.17789 0.10706,0.26817 0.21656,0.58589 0.36377,1.19684 0.48747,1.80812 0.237,1.36219 0.50107,2.72737 0.58145,4.10931 0.0265,1.48392 0.0499,2.97088 0.22944,4.44612 0.1808,1.46432 0.39962,2.92255 0.6682,4.3735 0.23062,1.36643 0.4099,2.74294 0.55694,4.12072 0.007,0.11349 0.1091,0.26747 0.0219,0.34048 -1.96557,1.64562 -1.94611,2.29575 -2.92404,1.14768 -0.35548,-0.48116 -0.63537,-1.00578 -0.89717,-1.54271 -0.36677,-0.72657 -0.73473,-1.45423 -1.16862,-2.1438 -0.69715,-1.31879 -1.37001,-2.65067 -2.0954,-3.95443 -0.62658,-1.09445 -1.2996,-2.16079 -1.95782,-3.23604 -0.55953,-0.808 -1.09362,-1.63649 -1.77282,-2.35194 -0.77069,-0.92425 -1.50444,-1.87576 -2.17112,-2.87931 -1.42027,-2.08581 -2.89815,-4.12826 -4.44775,-6.12048 -1.52891,-2.14374 -3.08974,-4.26486 -4.73354,-6.32249 -0.970659,-1.21839 -1.942426,-2.43499 -2.888978,-3.67229 -0.408278,-0.53369 -1.130088,-1.47682 -1.520436,-2.0471 -0.176596,-0.258 -0.335055,-0.52796 -0.502581,-0.79194 -0.999162,-1.50242 -2.009315,-2.99791 -3.072982,-4.45575 -1.897597,-2.6759 -3.675465,-5.43761 -5.349936,-8.25835 -0.900536,-1.54931 -1.755934,-3.1188 -2.604164,-4.69734 -0.451779,-0.84076 -1.030642,-1.97486 -1.512962,-2.80535 -0.237143,-0.40833 -0.495339,-0.80407 -0.74301,-1.2061 -0.248505,-0.37937 -0.48835,-0.76456 -0.74552,-1.13812 -1.571355,-2.28251 -3.413214,-4.36173 -5.134975,-6.52804 -1.128839,-1.44262 -1.675685,-2.10109 -2.737781,-3.63133 -2.024256,-2.91648 -3.7507572,-6.02461 -5.4634052,-9.12963 -1.537544,-2.99755 -3.117347,-5.97944 -4.304268,-9.13924 0,0 2.397779,-1.29667 2.397779,-1.29667 z"
       id="path817"
       style="opacity:1;fill:#080303;fill-opacity:1;stroke:none;stroke-width:1;stroke-linejoin:round;stroke-miterlimit:4;stroke-dasharray:none;stroke-dashoffset:0;stroke-opacity:1" />
  </g>
</svg>
