<?xml version="1.0" encoding="UTF-8" standalone="no"?>
<svg
   xmlns:dc="http://purl.org/dc/elements/1.1/"
   xmlns:cc="http://creativecommons.org/ns#"
   xmlns:rdf="http://www.w3.org/1999/02/22-rdf-syntax-ns#"
   xmlns:svg="http://www.w3.org/2000/svg"
   xmlns="http://www.w3.org/2000/svg"
   id="svg8"
   version="1.1"
   viewBox="0 0 64 100"
   height="100mm"
   width="64mm">
  <defs
     id="defs2" />
  <metadata
     id="metadata5">
    <rdf:RDF>
      <cc:Work
         rdf:about="">
        <dc:format>image/svg+xml</dc:format>
        <dc:type
           rdf:resource="http://purl.org/dc/dcmitype/StillImage" />
        <dc:title></dc:title>
      </cc:Work>
    </rdf:RDF>
  </metadata>
  <g
     transform="translate(0,-197)"
     id="layer1">
    <path
       d="m 61.81318,200.63888 c -1.178446,3.67374 -3.032554,7.07998 -4.875025,10.45265 -3.23316,5.58322 -6.992241,10.84219 -10.740993,16.0861 -4.547946,6.26723 -9.009954,12.59399 -13.323744,19.0247 -2.992956,4.62994 -5.938727,9.30343 -8.465404,14.20894 -0.398946,0.77454 -0.764484,1.56585 -1.146726,2.34877 -1.647349,3.41078 -3.089441,6.91469 -4.735858,10.32606 -0.820151,1.73407 -1.941671,3.29714 -2.87186,4.96823 -0.799563,1.57235 -1.288509,3.26995 -1.915077,4.91142 -0.11223,0.28919 -0.224734,0.57826 -0.336688,0.86755 -0.27442,0.70909 -0.32042,0.87522 -0.643656,1.54888 -0.289229,0.60279 -0.618678,1.18909 -0.936843,1.77695 -0.484721,0.83362 -1.009975,1.64324 -1.56014,2.43498 -0.5484956,0.79539 -1.1299894,1.57009 -1.7420053,2.31794 -0.663928,0.76074 -1.4382395,1.41189 -2.1807329,2.09277 -0.8360804,0.67141 -2.2356145,2.32811 -3.0675923,1.46687 -0.2264503,-0.23441 -0.246865,-0.58099 -0.2855717,-0.88149 -0.1271982,-1.37409 0.2581045,-2.72257 0.4920356,-4.06598 0.055765,-0.34356 0.1161785,-0.6864 0.1672963,-1.03068 0.2387272,-1.60784 0.047191,-0.59281 0.3414442,-2.28534 0.2488068,-1.43113 0.5711135,-2.848 0.8502095,-4.27342 0.7021607,-3.34241 1.2681002,-6.71355 1.7112797,-10.09981 0.1625341,-1.18282 0.325919,-2.36696 0.5589775,-3.53849 0.096503,-0.4851 0.1900606,-1.00577 0.3797258,-1.46773 0.8628991,-0.33088 1.6712443,-0.88148 2.5886966,-0.99264 0.223279,-0.0271 0.04019,0.44815 0.05102,0.6728 0.07011,1.45471 0.04196,2.91909 0.05197,4.37514 -0.06825,2.1769 -0.429486,4.32997 -0.7012459,6.48769 -0.1478838,1.48082 -0.3107602,2.96015 -0.5624602,4.42747 -0.1300028,0.65911 -0.2234068,1.32426 -0.3393202,1.98577 -0.080813,0.5363 -0.1341176,1.07286 -0.2527662,1.60282 -0.2556873,0.82426 -0.5468618,1.63879 -0.8414391,2.45011 -0.3631554,0.94249 -0.7180635,1.88904 -0.9698619,2.86809 -0.1061178,0.53267 -0.2330712,1.09268 -0.1474131,1.6363 0.02661,0.0236 0.045236,0.0789 0.079831,0.0707 0.064935,-0.0154 0.098356,-0.0915 0.1552681,-0.12636 0.1099251,-0.0673 0.224971,-0.12668 0.3429291,-0.17862 0.688761,-0.30326 1.4104736,-0.55367 2.1116856,-0.82572 2.3720718,-1.02252 4.7685438,-1.98901 7.1251048,-3.04692 1.883082,-0.88142 3.689691,-1.9135 5.520937,-2.89618 1.285,-0.61187 2.553772,-1.26613 3.860009,-1.8325 0.952825,-0.41313 1.387376,-0.54473 2.371399,-0.88885 2.416749,-0.62967 4.846293,-1.22018 7.284953,-1.76159 0.486034,-0.10129 0.969573,-0.21197 1.441243,-0.36718 0.03212,-0.0106 0.123825,-0.0518 0.09618,-0.0323 -2.499966,1.7609 -1.495348,1.59827 -2.74788,1.75089 -0.116491,0.011 -0.386517,0.0313 -0.495705,0.0644 -0.101679,0.0308 -0.1949,0.0847 -0.293209,0.12494 -0.396718,0.16255 -0.785907,0.33626 -1.177551,0.51091 -0.900425,0.34472 -1.758691,0.78236 -2.675401,1.08407 -1.562907,0.6105 -3.233166,0.83061 -4.867039,1.1615 -0.42142,0.0854 -0.839444,0.18668 -1.259167,0.28002 -1.776572,0.43656 -3.554132,0.86492 -5.338975,1.26638 -0.886135,0.14764 -1.732372,0.44882 -2.578653,0.7395 -0.989817,0.39738 -1.982248,0.78248 -2.989065,1.13474 -0.775142,0.32332 -1.575513,0.58237 -2.3529539,0.89886 -0.8460263,0.44819 -2.3602267,1.29272 1.4130229,-0.83128 0.102728,-0.0578 -0.20017,0.12457 -0.300525,0.18643 -0.580248,0.35764 -0.141816,0.0823 -0.747451,0.46654 -0.8221408,0.4996 -1.6246966,1.03101 -2.3985148,1.60258 -0.2967384,0.30655 -0.9904735,0.61693 -1.1534531,1.02466 0.2921627,0.002 0.5826027,0.0776 0.8752324,0.0645 0.3089606,-0.0139 0.7433691,-0.11844 1.0380726,-0.17993 1.5521819,-0.30619 3.0513029,-0.79859 4.5230819,-1.37094 1.45142,-0.62411 2.852666,-1.35294 4.257456,-2.07305 0.895746,-0.47849 1.838818,-0.82877 2.814634,-1.10173 0.178477,-0.0476 0.358938,-0.0882 0.53543,-0.14267 0.356992,-0.11016 0.74896,-0.27259 1.102814,-0.3928 0.506754,-0.17216 1.025797,-0.30821 1.539426,-0.45783 0.945647,-0.30392 1.933707,-0.42839 2.917455,-0.53404 1.034465,-0.1552 2.013037,-0.50234 2.972757,-0.90372 0.599678,-0.33338 1.27752,-0.46068 1.917581,-0.69085 -0.156363,0.12844 0.645472,-0.34352 0.486661,-0.25295 -0.712758,0.4065 -1.422749,0.81787 -2.137203,1.22139 -0.03098,0.0175 0.05061,-0.0616 0.08616,-0.063 0.02553,-0.001 -0.02037,0.061 -0.04591,0.0614 -0.118872,0.002 -0.23482,-0.0373 -0.352229,-0.056 -1.245812,-0.16249 -2.529089,-0.15303 -3.769949,0.0577 -0.748794,0.12718 -2.070744,0.49217 -2.792009,0.68143 -2.793774,0.77395 -5.391754,2.06439 -8.00991,3.27917 -1.447618,0.72838 -2.988562,1.22879 -4.49523,1.81189 -0.8648364,0.44286 -2.5042545,1.36607 1.405786,-0.82689 0.08577,-0.0481 -0.165603,0.1062 -0.246055,0.16275 -0.149922,0.10538 -0.353413,0.26558 -0.498948,0.37828 -0.34082,0.25852 -0.682545,0.52137 -0.9714446,0.8388 -0.00359,-0.006 -0.00719,-0.0126 -0.010779,-0.0189 0,0 -2.4493889,1.38082 -2.4493889,1.38082 v 0 c -0.025072,-0.0543 -0.050144,-0.10858 -0.075217,-0.16287 0.0056,-0.0501 -0.00161,-0.10339 0.016788,-0.15033 0.059025,-0.1505 0.1705113,-0.20682 0.2845136,-0.31339 0.2101898,-0.19649 0.415321,-0.39614 0.6557407,-0.55791 0.2447917,-0.18335 0.4741966,-0.40992 0.7374716,-0.56643 1.0609326,-0.63071 2.1127096,-1.35195 3.2687156,-1.82038 1.453727,-0.51746 2.917786,-1.01098 4.308091,-1.68923 2.609002,-1.19411 5.203887,-2.44908 7.984347,-3.2051 0.836084,-0.2191 2.006445,-0.54608 2.864618,-0.69216 1.321123,-0.22488 2.686502,-0.26191 4.018531,-0.13435 0.160086,0.0401 0.336378,0.0396 0.480261,0.12043 0.06115,0.0344 0.405681,0.33817 0.176747,0.48556 -0.94843,0.61061 -1.991931,1.3044 -3.089695,1.71697 -0.636257,0.20026 -1.278869,0.38241 -1.878677,0.68113 -0.966178,0.37846 -1.960312,0.6845 -2.991303,0.82812 -0.973879,0.13103 -1.951057,0.26014 -2.888849,0.56779 -1.064934,0.31461 -2.112815,0.6767 -3.176785,0.99276 -0.956144,0.2946 -1.879837,0.66724 -2.768667,1.12874 -1.382224,0.70225 -2.771951,1.39288 -4.201743,1.99425 -1.5095396,0.57703 -3.046714,1.07222 -4.6322336,1.39753 -0.5240449,0.0967 -1.6261043,0.3157 -2.1174392,-0.014 -0.05891,-0.0395 -0.092807,-0.10732 -0.1392108,-0.16098 -0.018677,-0.0673 -0.059593,-0.13215 -0.056028,-0.20191 0.022725,-0.44464 0.8949454,-0.85888 1.1665738,-1.14275 0.7692679,-0.58089 1.5682558,-1.12315 2.3944591,-1.62004 1.3799639,-0.9175 2.8051077,-1.78791 4.3050667,-2.49265 0.771915,-0.28622 1.54596,-0.5667 2.316003,-0.85795 1.014836,-0.35394 2.006661,-0.76364 3.00932,-1.14991 0.835035,-0.29317 1.685073,-0.54568 2.561235,-0.68417 1.732395,-0.34935 3.454228,-0.74328 5.175285,-1.14448 2.104115,-0.46483 4.256775,-0.78675 6.268995,-1.59016 0.915519,-0.3423 1.792856,-0.77297 2.701835,-1.13206 0.660754,-0.29184 1.319887,-0.63434 2.055373,-0.66762 1.083427,-0.14073 0.368721,-0.0932 -1.699855,1.60729 -0.01344,0.0111 -0.03488,10e-4 -0.05204,0.004 -0.07583,0.0129 -0.151022,0.0293 -0.226666,0.0432 -0.137962,0.0254 -0.276149,0.0495 -0.414147,0.0746 -0.21771,0.0397 -0.435319,0.0799 -0.652979,0.11988 -2.414706,0.47815 -4.814406,1.04893 -7.181223,1.72436 -0.403079,0.14566 -0.809842,0.2815 -1.209238,0.43698 -1.741091,0.67776 -3.39598,1.55906 -5.074397,2.37406 -1.801756,0.96729 -3.584428,1.9766 -5.450756,2.81626 -2.396992,1.0535 -4.8187299,2.05014 -7.2150915,3.1054 -0.6742652,0.27479 -0.9821333,0.39828 -1.6300289,0.66914 -0.3380689,0.14134 -0.9810006,0.54698 -1.3600213,0.30703 -0.067054,-0.0424 -0.087782,-0.13224 -0.1316728,-0.19836 -0.1100851,-0.58038 0.00812,-1.19202 0.1321464,-1.76263 0.2759718,-0.99009 0.6487571,-1.94782 1.0076998,-2.91006 0.2769484,-0.78992 0.518732,-1.59187 0.7814056,-2.38708 0.1260205,-0.52491 0.1932405,-1.0566 0.2602,-1.59174 0.1269772,-0.67517 0.2272755,-1.3549 0.4029516,-2.02035 0.3199051,-1.4771 0.5346094,-2.97195 0.696195,-4.4742 0.08797,-0.67772 0.1684607,-1.35643 0.2627177,-2.03331 0.2058012,-1.47788 0.4843391,-2.94999 0.5020437,-4.4477 -0.018844,-1.4202 -0.00153,-2.8589 -0.1900314,-4.27005 -0.024495,-0.18338 -0.2426054,-0.42361 -0.1032825,-0.54534 0.6970665,-0.60906 1.5832169,-0.95961 2.3748256,-1.43941 -0.068986,0.0387 -0.1621395,0.051 -0.2069581,0.11622 -0.1905825,0.27725 -0.3865914,1.06964 -0.4491477,1.31523 -0.3019517,1.18546 -0.5096449,2.39262 -0.7155976,3.59745 -0.5136943,3.37749 -1.0435831,6.75467 -1.7029387,10.10701 -0.2462581,1.40719 -0.5352145,2.80759 -0.7564194,4.21898 -0.207776,1.32572 -0.1329791,0.98102 -0.2983119,2.26363 -0.043927,0.34077 -0.094511,0.68065 -0.1417664,1.02097 -0.5478042,3.71705 0.2447811,-1.62751 -0.2721692,1.75709 -0.03576,0.23413 -0.1469028,0.99549 -0.1557319,1.27199 -0.00611,0.19134 0.039179,0.67892 0.056434,0.88659 0.025215,0.16172 0.04122,0.36213 0.1115163,0.51797 0.017563,0.0389 0.039603,0.0808 0.076045,0.10313 0.02984,0.0183 0.1341504,-0.0114 0.1046684,0.007 -2.9958916,1.91219 -2.7216256,1.7228 -1.8614702,1.08293 0.7566088,-0.66484 1.5171274,-1.33033 2.2098875,-2.06239 0.6205421,-0.73404 1.1914643,-1.50908 1.7439381,-2.29518 0.562347,-0.7888 1.0774505,-1.6098 1.6028072,-2.42316 0.7752436,-1.35108 1.5391806,-2.70729 2.0185266,-4.19902 0.63505,-1.63403 1.116654,-3.32759 1.853081,-4.92244 0.949817,-1.72624 2.18387,-3.28269 3.072991,-5.04642 1.759352,-3.45174 3.307053,-7.00528 5.046313,-10.46695 0.403885,-0.79555 0.792592,-1.59898 1.211657,-2.38663 2.626735,-4.93709 5.662065,-9.64212 8.700344,-14.33151 2.172327,-3.21429 4.352878,-6.42551 6.582378,-9.60058 2.208181,-3.14472 4.50165,-6.22946 6.673895,-9.39966 3.679288,-5.19912 7.359481,-10.42167 10.515537,-15.96037 1.706097,-3.22232 3.482271,-6.5244 4.315243,-10.10141 0,0 2.431642,-1.19139 2.431642,-1.19139 z"
       id="path819"
       style="opacity:1;fill:#080303;fill-opacity:1;stroke:none;stroke-width:1;stroke-linejoin:round;stroke-miterlimit:4;stroke-dasharray:none;stroke-dashoffset:0;stroke-opacity:1" />
  </g>
</svg>
