<?xml version="1.0" encoding="UTF-8" standalone="no"?>
<svg
   xmlns:dc="http://purl.org/dc/elements/1.1/"
   xmlns:cc="http://creativecommons.org/ns#"
   xmlns:rdf="http://www.w3.org/1999/02/22-rdf-syntax-ns#"
   xmlns:svg="http://www.w3.org/2000/svg"
   xmlns="http://www.w3.org/2000/svg"
   id="svg8"
   version="1.1"
   viewBox="0 0 180 200"
   height="200mm"
   width="180mm">
  <defs
     id="defs2" />
  <metadata
     id="metadata5">
    <rdf:RDF>
      <cc:Work
         rdf:about="">
        <dc:format>image/svg+xml</dc:format>
        <dc:type
           rdf:resource="http://purl.org/dc/dcmitype/StillImage" />
        <dc:title></dc:title>
      </cc:Work>
    </rdf:RDF>
  </metadata>
  <g
     transform="translate(0,-97)"
     id="layer1">
    <path
       d="m 81.440289,137.91234 c -1.627132,-0.0498 -3.25536,-0.0345 -4.883045,-0.0448 -1.995281,-0.01 -3.990612,-0.007 -5.985896,7.9e-4 -1.555411,0.0155 -3.094955,0.30505 -4.597958,0.68762 -1.494644,0.401 -2.968985,0.86954 -4.455999,1.29702 -1.651285,0.53743 -3.251562,1.21717 -4.81602,1.96756 0.496102,-0.33066 -1.865164,1.01728 -1.401156,0.7588 0.528672,-0.2945 1.038286,-0.62498 1.582018,-0.89064 0.229073,-0.11193 -0.424839,0.28206 -0.634212,0.42754 -0.425535,0.29569 -0.842589,0.6034 -1.263951,0.905 -1.029547,0.6946 -2.061163,1.39798 -3.017653,2.19257 -0.748141,0.6215 -0.960006,0.85477 -1.664927,1.53975 -1.764081,1.77941 -3.447069,3.64592 -4.967798,5.63907 -0.388083,0.50865 -0.760394,1.02914 -1.14059,1.5437 -0.748583,1.13817 -1.666523,2.49591 -2.332072,3.67377 -0.753581,1.33366 -1.549241,3.0496 -2.202884,4.4257 -1.333434,2.80724 -0.886907,1.85235 -2.149274,4.67039 -1.460767,3.36187 -3.057474,6.68549 -4.103542,10.20912 -0.186248,0.62737 -0.335097,1.26524 -0.502647,1.89787 -0.939133,4.12879 -1.050219,8.37955 -1.118513,12.59501 -0.02522,3.38141 0.03613,6.76261 0.0897,10.14344 0.0054,0.42135 0.01148,0.84269 0.01627,1.26404 0.01508,1.32891 0.06933,2.63315 0.258421,3.95174 0.247222,1.72396 0.363408,2.05711 0.766914,3.84266 1.396761,5.6684 2.934694,11.30324 4.584477,16.9033 1.034341,3.26762 2.259645,6.47484 3.732604,9.57052 0.579493,1.21791 1.084908,2.16244 1.703798,3.34911 1.526498,2.95398 3.211388,5.81902 5.024223,8.6052 1.040347,1.58567 2.16676,3.11618 3.365706,4.58565 0.746977,0.91552 1.467194,1.76054 2.337171,2.56256 0.38236,0.3525 0.801748,0.66257 1.202621,0.99386 1.31482,0.99465 2.788515,1.76393 4.335634,2.32941 0.689571,0.25204 1.401527,0.43991 2.106819,0.64017 3.110434,0.76006 6.289585,1.19561 9.470671,1.52626 4.748643,0.41616 9.519184,0.45136 14.282475,0.49545 4.29268,-0.0212 8.58821,0.0896 12.88054,5.3e-4 0.85829,-0.0178 1.716,-0.0575 2.573986,-0.0862 0.84069,-0.0413 1.68144,-0.0814 2.52206,-0.12406 2.15979,-0.10971 2.71083,-0.12277 4.84531,-0.32004 2.21247,-0.20449 4.41725,-0.49223 6.62198,-0.76499 4.20827,-0.51683 8.4135,-1.08455 12.59918,-1.76194 3.04346,-0.58175 6.10342,-1.18631 9.06401,-2.11693 1.76412,-0.55453 2.36137,-0.82939 4.06832,-1.51029 1.33386,-0.62593 2.58023,-1.16194 3.83407,-1.9453 0.0355,-0.0222 -0.0832,-0.087 -0.0517,-0.1146 0.56621,-0.49621 1.20563,-0.90406 1.77547,-1.39611 1.60015,-1.38171 1.84217,-1.77878 3.24341,-3.38973 0.46799,-0.6619 0.98039,-1.29453 1.40396,-1.98569 1.53948,-2.51206 2.53867,-5.31705 3.38889,-8.12061 0.92907,-3.06353 1.01332,-3.67873 1.73825,-6.82667 1.00036,-4.71667 1.89671,-9.45971 2.46231,-14.25038 0.3424,-2.90017 0.3891,-3.93416 0.60556,-6.82718 0.16579,-3.10212 0.31975,-6.20853 0.32207,-9.31611 7.9e-4,-0.92756 0.002,-1.85592 -0.0445,-2.78232 -0.11312,-2.26643 -0.27291,-2.92632 -0.61617,-5.15407 -1.01858,-4.91979 -2.98004,-9.5668 -4.88156,-14.19461 -1.19006,-2.91433 -2.42397,-5.81305 -3.81424,-8.63864 -0.77671,-1.57861 -1.35886,-2.63044 -2.19113,-4.18134 -2.42884,-4.48471 -5.33169,-8.67948 -8.16081,-12.91412 -1.5855,-2.26815 -3.10615,-4.58291 -4.70912,-6.83891 -0.342,-0.48133 -1.37314,-1.86589 -1.75321,-2.37795 -1.22932,-1.59605 -2.41293,-3.2245 -3.57371,-4.87083 -0.9624,-1.40793 -2.16309,-2.66403 -3.52361,-3.69559 -1.08514,-0.82277 -1.71937,-1.13459 -2.90664,-1.81571 -2.03866,-1.00229 -4.20936,-1.68719 -6.4327,-2.13585 -1.21818,-0.24583 -1.65661,-0.27975 -2.87236,-0.43416 -2.60664,-0.27207 -5.23074,-0.2591 -7.84809,-0.28453 -4.01,-0.0253 -8.019956,-0.0563 -12.030036,-0.0648 -3.25502,0.0122 -6.51138,-0.0531 -9.76525,0.0616 -1.175061,0.0414 -3.002459,0.14539 -4.192258,0.20968 -2.198873,0.17973 -4.407914,0.25418 -6.596555,0.5462 -0.04629,0.006 -3.072937,0.47121 -3.076744,0.47179 -2.437545,0.43364 -4.911389,0.80106 -7.292573,1.4998 -1.848141,0.54233 -2.163598,0.74941 -3.932375,1.52654 -0.642596,0.35018 -1.308542,0.66055 -1.927786,1.05054 -0.05414,0.0341 0.0093,0.14573 -0.03879,0.18798 -0.573055,0.50399 -1.210979,0.92999 -1.793279,1.42327 -1.707711,1.44662 -3.202057,3.06502 -4.695503,4.72468 -2.644232,3.12283 -5.282744,6.25096 -7.876309,9.41611 -2.67335,3.39002 -5.230654,6.87462 -7.435509,10.59128 -0.462563,0.77973 -0.890489,1.57949 -1.335736,2.36923 -1.552598,2.85496 -2.707092,5.89579 -3.859037,8.92646 -1.080037,2.84149 -0.439243,1.0932 -1.427756,3.85459 -1.237271,3.1687 -2.346372,6.39342 -3.055424,9.72603 -0.174281,0.81915 -0.307512,1.64649 -0.461266,2.46974 -0.45769,2.71732 -0.636588,5.4664 -0.799418,8.21304 -0.138199,2.33122 -0.250388,4.66149 -0.336536,6.99513 -0.07177,1.78864 -0.09495,3.5784 -0.11946,5.36809 -0.01619,1.18264 -0.07483,2.2663 0.07234,3.44859 0.08243,0.66218 0.247243,1.31149 0.370867,1.96723 0.242427,0.7859 0.451302,1.58294 0.727284,2.35769 0.310232,0.8709 0.665871,1.7254 1.029914,2.57522 1.523024,3.55531 3.38427,6.93053 5.289674,10.2903 1.244328,2.19627 2.633417,4.30844 3.879139,6.50365 0.287334,0.50634 1.257498,2.31934 1.528132,2.82307 1.585169,3.13726 3.553762,6.05723 5.575266,8.92517 0.72698,1.01491 1.488977,2.0054 2.294861,2.95905 0.380804,0.45063 0.777626,0.90959 1.218271,1.30475 0.220943,0.19815 0.461534,0.37322 0.692304,0.55983 0.269816,0.1798 0.532497,0.37081 0.809453,0.53941 0.296851,0.18072 0.608917,0.33523 0.910621,0.50772 0.85184,0.48702 1.211937,0.73646 2.109719,1.18256 1.044763,0.51914 1.738162,0.78341 2.826173,1.23414 2.143456,0.82436 4.358452,1.42674 6.566583,2.04434 1.168397,0.3268 2.33105,0.67381 3.497043,1.00909 5.266568,1.4725 10.471599,3.17026 15.801736,4.40805 1.697435,0.39419 3.408686,0.72631 5.113024,1.08946 6.97437,1.40735 14.03258,2.34256 21.121506,2.92416 3.77799,0.30995 5.30951,0.35818 9.03249,0.54441 1.3562,0.0469 2.71213,0.10211 4.06858,0.14066 4.89295,0.13908 9.95424,0.31445 14.82843,-0.18649 1.11415,-0.1145 2.21903,-0.30614 3.32854,-0.45922 5.14311,-0.84927 10.02393,-2.69182 14.91354,-4.42532 1.96406,-0.70425 3.97946,-1.30562 5.85252,-2.24177 0.63336,-0.31655 1.2848,-0.61791 1.84872,-1.04609 0.0756,-0.0574 -0.21951,-0.15405 -0.16535,-0.23208 0.44102,-0.63532 1.02299,-1.16018 1.53449,-1.74027 0.41888,-0.72425 0.90363,-1.41423 1.25665,-2.17277 1.29465,-2.78179 1.7845,-5.84082 2.20074,-8.8496 0.40513,-2.92843 0.49639,-4.1835 0.78325,-7.13689 0.43687,-3.75096 0.82287,-7.50759 1.24144,-11.26057 0.33351,-2.9903 0.51885,-4.35274 0.80554,-7.34528 0.11559,-1.20663 0.2093,-2.41526 0.31394,-3.62288 0.15723,-2.38301 0.34496,-4.49133 0.31161,-6.8807 -0.0314,-2.24902 -0.23419,-4.44839 -0.58874,-6.66846 -0.48054,-3.00903 -0.67541,-3.39932 -1.4816,-6.30558 -1.20597,-3.7961 -2.80585,-7.45155 -4.62217,-10.9923 -0.81862,-1.59582 -1.68532,-3.16654 -2.5229,-4.75251 -2.51566,-4.5593 -4.46553,-9.39174 -6.44113,-14.20012 -2.00223,-5.0832 -4.19999,-10.08538 -6.24188,-15.15235 -1.52355,-3.74079 -2.77351,-7.58573 -3.93805,-11.45105 -1.07638,-3.46911 -2.02312,-6.97475 -2.89119,-10.50111 -0.90549,-3.65687 -1.90903,-7.28943 -3.11676,-10.85837 -0.93971,-2.44567 -2.26062,-4.98832 -4.37154,-6.63559 -0.44188,-0.34482 -0.93984,-0.61101 -1.40976,-0.91651 -2.64249,-1.51808 -5.50561,-2.19807 -8.47446,-2.74063 -2.77018,-0.50625 -2.97018,-0.49631 -5.81444,-0.87313 -6.74386,-0.75643 -13.53764,-0.87808 -20.317066,-0.91556 -4.24585,0.0512 -8.58905,0.26458 -12.654491,1.61862 -1.997607,0.66532 -1.889572,0.63233 -2.969313,1.30731 -4.130902,2.93346 -7.113206,7.08048 -10.190736,11.03195 -2.04048,2.66176 -4.359826,5.08494 -6.63792,7.53911 -1.583494,1.70588 -2.197449,2.40044 -3.764867,4.14002 -2.989747,3.38426 -5.477322,7.18319 -7.532923,11.19968 -1.41084,2.75668 -2.277584,4.89691 -3.512076,7.75425 -3.334377,7.99935 -6.068762,16.22648 -8.993556,24.37938 -0.375433,0.94286 -0.734086,1.89258 -1.126304,2.82859 -1.339226,3.19597 -3.036102,6.20733 -4.523187,9.33224 -0.320175,0.6728 -0.616392,1.35674 -0.924587,2.03511 -1.272807,2.93056 -2.400527,5.93349 -3.218174,9.02549 -0.153599,0.58085 -0.279583,1.16865 -0.419373,1.75297 -0.881552,3.8773 -1.048181,7.85788 -1.171533,11.81671 -0.211717,3.52829 -0.569449,7.04529 -0.897675,10.56395 -0.327843,3.53311 -0.375404,7.08314 -0.429049,10.62846 -0.104026,3.82316 -0.02082,7.65168 0.480129,11.44807 0.135131,1.02409 0.318913,2.04118 0.478369,3.06177 0.894702,5.09412 2.211092,10.14369 4.280239,14.89618 0.35269,0.81007 0.756362,1.59698 1.134544,2.39547 1.869847,3.53409 4.201184,6.88109 7.216119,9.54014 0.621138,0.54782 1.292106,1.03641 1.93816,1.55462 0.69228,0.47933 1.36321,0.99106 2.076836,1.43798 2.80497,1.75668 6.037773,3.08398 9.218094,3.97747 0.919782,0.2584 1.854372,0.46086 2.781557,0.69129 7.198407,1.73853 14.598065,2.37266 21.975936,2.75668 2.269266,0.11812 4.541232,0.17689 6.811851,0.26533 8.2228,0.23353 16.504746,0.22416 24.624546,-1.31131 3.03991,-0.57485 6.04979,-1.32994 9.00828,-2.23482 7.79218,-2.3833 9.01414,-3.36853 16.10767,-6.9543 5.58338,-4.20965 6.58517,-4.54686 11.26379,-9.70763 4.40194,-4.85557 8.09077,-10.50329 11.22188,-16.24651 0.85877,-1.5752 1.61242,-3.20547 2.41863,-4.8082 1.5957,-3.87784 2.14917,-4.84967 3.2101,-8.85059 0.78599,-2.96411 1.25858,-5.8684 1.61269,-8.91076 0.43475,-3.73522 0.46222,-5.53102 0.64884,-9.27979 0.0421,-6.84204 -0.29198,-13.71461 -1.33792,-20.48389 -0.1608,-1.04072 -0.36763,-2.0738 -0.55144,-3.11069 -1.02717,-5.28934 -3.00984,-10.31195 -4.99144,-15.29952 -1.16211,-2.90797 -2.62074,-5.67555 -4.08903,-8.43566 -1.61189,-3.03007 -3.26687,-6.03062 -4.94934,-9.02204 -2.19509,-3.75162 -4.56664,-7.39667 -6.79158,-11.12994 -1.23988,-2.08043 -1.79726,-3.10623 -2.98175,-5.21746 -1.46045,-2.55795 -2.87102,-5.14631 -4.42292,-7.65106 -0.50674,-0.81789 -1.01064,-1.63875 -1.56116,-2.42784 -1.58436,-2.27099 -1.91251,-2.50436 -3.77309,-4.56727 -3.34077,-3.34009 -7.28721,-5.93668 -11.4993,-8.03999 -2.5687,-1.28268 -3.71282,-1.69209 -6.33717,-2.76063 -2.92782,-1.036 -5.859,-2.09852 -8.88202,-2.83056 -1.39774,-0.33848 -1.64634,-0.348 -3.048796,-0.56648 -4.04205,-0.43451 -8.11895,-0.405 -12.17938,-0.45116 -4.470419,-0.0503 -8.978776,-0.1425 -13.388007,0.73733 -3.176757,0.6339 -3.747971,0.98682 -6.765039,2.11784 -1.049165,0.52439 -2.126673,0.99556 -3.147496,1.57319 -0.520354,0.29444 -0.987806,0.67475 -1.46403,1.03623 -1.034764,0.78546 -2.077344,1.56305 -3.067775,2.40371 -2.328396,1.97632 -4.532865,4.18518 -6.573401,6.45056 -1.318492,1.46378 -2.559907,2.99519 -3.83986,4.49279 -1.280697,1.61597 -2.586922,3.21205 -3.842092,4.84793 -1.261041,1.64354 -2.48159,3.31784 -3.705613,4.98913 -1.893912,2.58595 -4.938091,6.83274 -6.764729,9.50479 -2.55396,3.736 -3.582252,5.42222 -6.023505,9.25794 -3.859545,6.1876 -6.986479,12.80925 -8.976222,19.83724 -1.246484,4.40272 -1.578012,6.79169 -2.400295,11.26696 -1.451274,9.24927 -2.002681,18.60231 -2.202748,27.95231 -0.03457,3.25035 -0.190532,6.5503 0.671295,9.72062 0.399809,1.47073 0.76028,2.18176 1.353532,3.56452 1.361329,2.50323 2.994006,4.87941 4.856654,7.03874 1.239486,1.43691 2.077977,2.20186 3.42958,3.52423 2.146011,1.94425 4.346387,3.85881 6.784998,5.43441 0.881264,0.56939 2.327572,1.34825 3.247446,1.85656 0.55186,0.27412 1.095433,0.56559 1.65558,0.82235 1.962608,0.89962 4.012792,1.59802 6.051978,2.29818 3.066653,1.05295 2.119863,0.73239 5.320808,1.72452 5.998305,1.87539 12.017574,3.68688 18.099122,5.27581 1.252789,0.32732 2.512393,0.62798 3.76859,0.94197 4.610645,1.00506 9.192665,2.1386 13.807399,3.12531 1.23511,0.26409 2.46782,0.54234 3.71115,0.76454 1.52262,0.27212 3.05624,0.47867 4.58437,0.71801 5.22852,0.67479 10.492996,1.00396 15.756626,1.24411 3.64479,0.16628 6.67056,0.26711 10.30517,0.29905 1.48888,0.0131 2.97787,-0.007 4.46681,-0.0111 4.34587,-0.056 8.70622,-0.37388 12.94336,-1.38547 2.03948,-0.48692 2.38627,-0.65653 4.33296,-1.3242 1.91271,-0.77541 3.82278,-1.6146 5.55987,-2.74272 0.0894,-0.0581 -0.38967,0.14783 -0.31074,0.0761 1.88259,-1.43669 0.99231,-0.66644 2.67307,-2.30816 2.82142,-3.2928 4.50246,-7.33291 6.32744,-11.21668 2.53153,-5.35907 5.61496,-10.46614 7.79787,-15.98877 0.45431,-1.1494 0.82855,-2.32885 1.24283,-3.49328 0.32349,-1.18422 0.69065,-2.35736 0.97045,-3.55265 0.57984,-2.47703 0.97739,-5.04499 1.2513,-7.57227 0.2933,-2.70609 0.4333,-5.13455 0.40197,-7.85899 -0.0152,-1.321 -0.1148,-2.63968 -0.1722,-3.95953 -0.48982,-5.78595 -1.71052,-11.49492 -3.5334,-17.0057 -0.29946,-0.9053 -0.63952,-1.79667 -0.95928,-2.69501 -1.50237,-4.09968 -3.17725,-8.14126 -5.11215,-12.05727 -0.40776,-0.82525 -0.84012,-1.63812 -1.26019,-2.45718 -1.85112,-3.49193 -3.97257,-6.83485 -6.32255,-10.01196 -1.15061,-1.55559 -2.37762,-3.05751 -3.58724,-4.56681 -3.29591,-3.9816 -6.49719,-8.0367 -9.61478,-12.15902 -3.04209,-3.99595 -6.01684,-8.04195 -9.0238,-12.06413 -2.26269,-2.9693 -4.6067,-5.90178 -7.35574,-8.44215 -1.85332,-1.71265 -2.71466,-2.29229 -4.72401,-3.82209 -3.82234,-2.69882 -7.98937,-4.92988 -12.38664,-6.54219 -0.75305,-0.27612 -1.52377,-0.50147 -2.285656,-0.75221 -4.40171,-1.25606 -8.93513,-1.91711 -13.44214,-2.66001 -2.936219,-0.55205 -5.907085,-0.87331 -8.865476,-1.2745 -6.077635,-0.82418 1.630791,0.17768 -4.513934,-0.61233 -3.286789,-0.36243 -6.591475,-0.64457 -9.900311,-0.67903 -0.89044,-0.009 -1.782236,-0.0206 -2.6713,0.0297 -0.933691,0.0529 -1.861063,0.18636 -2.791592,0.27954 -3.903297,0.55837 -7.515262,1.85243 -10.965273,3.74493 -0.36718,0.20141 -0.701624,0.45763 -1.046707,0.69492 -0.858171,0.59012 -1.708571,1.19145 -2.562857,1.78717 -3.022846,2.41272 -1.575885,1.18524 -4.348827,3.67307 0,0 -1.875668,0.76466 -1.875668,0.76466 v 0 c 2.838471,-2.52844 1.361641,-1.28104 4.437486,-3.7339 0.855601,-0.6005 1.684943,-1.24028 2.566804,-1.80151 2.11496,-1.34598 4.716738,-2.92018 7.088974,-3.96571 2.650863,-1.16832 5.451541,-1.95932 8.319068,-2.36061 0.945804,-0.0969 1.888271,-0.23532 2.837413,-0.29065 0.894623,-0.0521 1.792129,-0.0384 2.688246,-0.0315 3.338005,0.0259 6.674406,0.27966 9.991296,0.63924 4.471382,0.5675 8.946973,1.13039 13.390568,1.88845 4.50758,0.73785 9.04051,1.41032 13.430336,2.71076 0.75443,0.26138 1.51825,0.49706 2.26329,0.78413 4.35739,1.67893 8.47638,3.97916 12.28255,6.6719 2.15908,1.63679 2.75434,2.01127 4.75452,3.83197 2.78441,2.53457 5.1821,5.43138 7.48683,8.39881 3.02401,4.0089 5.98465,8.06552 9.02373,12.06334 1.52986,2.02296 3.06573,4.04018 4.63523,6.03269 3.92819,4.98692 -0.76406,-0.99405 3.24469,4.05392 0.55665,0.70096 1.10304,1.41 1.65456,2.115 3.62911,4.64475 7.18821,9.37123 9.94914,14.59983 0.43208,0.81482 0.87841,1.62224 1.29624,2.44446 1.98365,3.90355 3.62717,7.97805 5.06387,12.11101 0.30516,0.90964 0.63106,1.81259 0.91547,2.72893 1.73222,5.58108 2.81301,11.35055 3.31909,17.1696 0.0587,1.32302 0.15662,2.64488 0.1762,3.96906 0.0425,2.87554 -0.0724,5.00805 -0.36843,7.86355 -0.25121,2.42328 -0.64723,5.19047 -1.19252,7.56986 -0.27534,1.20149 -0.64781,2.37862 -0.97172,3.56793 -0.41661,1.16984 -0.79413,2.35435 -1.24981,3.50953 -2.14925,5.44841 -5.15264,10.50851 -7.51172,15.86186 -1.72425,3.86964 -3.29559,7.89826 -6.04849,11.18141 -0.41824,0.41917 -0.80978,0.86679 -1.25471,1.25751 -1.48919,1.30774 -3.32731,2.2813 -4.99701,3.27387 -1.76984,1.05211 -3.6127,1.96989 -5.54855,2.67848 -0.6865,0.22661 -1.3648,0.47977 -2.05951,0.67982 -4.78137,1.37688 -9.78712,1.63006 -14.73497,1.59007 -10.16738,-0.18967 -20.33954,-0.56312 -30.460256,-1.60469 -1.6029,-0.1906 -3.21218,-0.33358 -4.80869,-0.57181 -1.27255,-0.18988 -2.532409,-0.45776 -3.79372,-0.7118 -4.6034,-0.92716 -9.137628,-2.15998 -13.716648,-3.1947 -1.251857,-0.31843 -2.507242,-0.6233 -3.755572,-0.95529 -3.865333,-1.02796 -7.702918,-2.16221 -11.558633,-3.22517 -1.236054,-0.34076 -2.478246,-0.65905 -3.713607,-1.00231 -1.027588,-0.28552 -2.050012,-0.58932 -3.075019,-0.88398 -2.59402,-0.76186 -5.189312,-1.5219 -7.750294,-2.39053 -1.301067,-0.44129 -2.648378,-0.91888 -3.902429,-1.48817 -0.563616,-0.25587 -1.106845,-0.55445 -1.660269,-0.83167 -1.129374,-0.63322 -2.150483,-1.17643 -3.228027,-1.89921 -2.40715,-1.61464 -4.564518,-3.57637 -6.69144,-5.53362 -1.286142,-1.27348 -2.243939,-2.18249 -3.451143,-3.53771 -1.91494,-2.14972 -3.63996,-4.48917 -5.024744,-7.01526 -0.579869,-1.41421 -0.931605,-2.13506 -1.312407,-3.637 -0.174356,-0.68768 -0.321914,-1.38443 -0.410974,-2.08826 -0.329801,-2.60638 -0.03068,-5.24014 0.04893,-7.84896 0.572227,-9.45574 1.480891,-18.88909 2.798878,-28.27163 0.763773,-4.06398 1.282692,-7.27077 2.373252,-11.27056 1.000924,-3.67103 2.137045,-6.86138 3.726471,-10.31305 1.732978,-3.76343 3.133254,-5.96042 5.225507,-9.54669 0.991878,-1.57018 1.960145,-3.15553 2.975637,-4.71054 2.193882,-3.35947 4.074866,-6.00296 6.426967,-9.26667 1.305404,-1.81134 5.919269,-8.1145 7.236492,-9.85007 1.22892,-1.61923 2.498206,-3.20742 3.747312,-4.81113 2.760104,-3.37732 3.869931,-4.91407 6.846893,-7.92482 1.483315,-1.50014 4.239167,-3.99102 6.015479,-5.21879 3.5317,-2.44109 4.269491,-2.67862 7.69979,-4.36882 3.046114,-1.12189 3.57963,-1.45568 6.783033,-2.08383 4.477692,-0.87804 9.054395,-0.7981 13.593065,-0.8541 4.1634,-0.0415 8.34976,-0.19258 12.495936,0.26888 1.40995,0.24084 1.61761,0.23891 3.00781,0.62906 2.91138,0.81703 5.6939,2.03378 8.51346,3.10866 1.01673,0.43534 2.04244,0.85028 3.0502,1.30601 5.40283,2.44324 10.59384,5.39877 14.91241,9.51371 1.80675,1.98524 2.28665,2.38242 3.81874,4.57854 0.55154,0.79059 1.04581,1.61979 1.55152,2.44045 1.54689,2.51028 2.96692,5.09439 4.41006,7.66469 1.17528,2.09722 1.75032,3.14478 2.96238,5.22183 2.19091,3.75443 4.48538,7.4479 6.68591,11.19671 1.69883,2.98248 3.37427,5.97446 5.01057,8.99177 0.99862,1.84144 2.08945,3.8245 3.00184,5.71264 0.42604,0.88168 0.8095,1.78331 1.21425,2.67496 0.49289,1.18987 1.59783,3.82681 2.05914,5.05776 1.2548,3.34832 2.26165,6.80489 2.85657,10.33289 0.15798,1.05355 0.34019,2.10374 0.47393,3.16063 0.26995,2.13334 0.53436,5.24864 0.6723,7.36124 0.16783,2.5703 0.32029,6.12054 0.36439,8.67464 0.0266,1.54189 0.0101,3.08422 0.0151,4.62633 -0.16334,3.25484 -0.25298,6.03683 -0.61581,9.27872 -0.32684,2.92026 -0.84106,6.10167 -1.61686,8.94065 -1.09133,3.99366 -1.75534,5.12909 -3.42817,8.97621 -0.86032,1.6295 -1.67019,3.28664 -2.58096,4.88849 -1.95119,3.43175 -4.66366,7.68598 -7.01553,10.81718 -1.44599,1.92513 -2.92948,3.82991 -4.55728,5.60398 -4.94745,5.39202 -6.11823,5.76544 -12.1903,10.20946 -7.08518,3.53273 -8.08573,4.38072 -15.88441,6.77266 -2.99623,0.91897 -6.03842,1.70607 -9.11332,2.31179 -2.93801,0.57874 -5.91647,0.95762 -8.897956,1.23618 -4.77884,0.44648 -11.39161,0.38575 -16.204477,0.41527 -2.308942,-0.0541 -10.909911,-0.23928 -13.381344,-0.35845 -1.691113,-0.0815 -3.379367,-0.21754 -5.066562,-0.35855 -1.509794,-0.12619 -3.020679,-0.25108 -4.523539,-0.44296 -1.933625,-0.24687 -4.846603,-0.83852 -6.785821,-1.21267 -2.266516,-0.52942 -3.246919,-0.69323 -5.41605,-1.44509 -3.152788,-1.0928 -6.120056,-2.70171 -8.806439,-4.67274 -1.69154,-1.34629 -2.24804,-1.6929 -3.735549,-3.2554 -2.222376,-2.33441 -3.984718,-5.07738 -5.427575,-7.9467 -0.364048,-0.81124 -0.754724,-1.61106 -1.092147,-2.43373 -1.971837,-4.80753 -3.25741,-9.87216 -4.237837,-14.96393 -0.484026,-2.57296 -0.653103,-3.2113 -0.948907,-5.74005 -0.160067,-1.36838 -0.293798,-3.23213 -0.331951,-4.62239 -0.01873,-0.68227 -0.0034,-1.36505 -0.0039,-2.04757 -5.29e-4,-0.65788 5.29e-4,-1.31576 7.94e-4,-1.97364 0.0191,-3.53601 0.05911,-7.07574 0.33419,-10.60284 0.344947,-3.54132 0.801243,-7.07245 1.049289,-10.62285 0.09945,-3.95628 0.209392,-7.93781 1.068287,-11.81805 0.141722,-0.58899 0.271198,-1.18106 0.425162,-1.76697 0.822693,-3.13075 1.974652,-6.16215 3.312099,-9.10707 0.323607,-0.68789 0.636537,-1.3809 0.970822,-2.06366 1.995647,-4.07602 4.294879,-8.01043 5.919462,-12.26153 3.179771,-8.12969 6.119487,-16.35068 9.242428,-24.50229 1.067268,-2.57384 2.099302,-5.18417 3.328307,-7.68841 1.959044,-3.99177 4.376767,-7.76579 7.279072,-11.13727 0.820578,-0.9192 2.842548,-3.19152 3.692233,-4.11472 2.259852,-2.45536 4.58347,-4.85879 6.619169,-7.51037 0.344059,-0.43923 2.748476,-3.51112 3.08443,-3.93032 1.583458,-1.97578 3.212521,-3.93864 5.121498,-5.6148 0.632944,-0.55575 1.319212,-1.04766 1.978821,-1.57149 2.81518,-1.61078 3.709752,-2.38031 6.499355,-3.26628 4.04056,-1.28329 8.3416,-1.41866 12.54108,-1.47284 6.818476,0.0361 13.648066,0.16199 20.436406,0.85811 2.77619,0.34037 3.20269,0.3611 5.91823,0.81501 3.02337,0.50537 6.04099,1.15976 8.74993,2.65862 0.4847,0.31274 0.99866,0.58422 1.45411,0.93821 0.91681,0.71255 1.50382,1.4393 2.17293,2.3755 0.96254,1.34677 1.69565,2.81003 2.23172,4.37646 1.15095,3.59468 2.13024,7.2438 3.0832,10.89527 0.90925,3.51074 1.8284,7.01921 2.90091,10.48454 1.15013,3.87427 2.3125,7.75056 3.7721,11.52205 1.93206,5.1137 4.08806,10.13551 6.15588,15.195 1.11701,2.6424 1.00783,2.40013 2.1327,4.99884 0.6081,1.40486 1.41387,3.27764 2.07371,4.66172 0.36182,0.75896 0.75037,1.50489 1.1266,2.2568 0.37557,0.75059 0.75254,1.50048 1.1288,2.25072 0.40603,0.78538 0.80898,1.57235 1.21807,2.35614 0.42197,0.80846 0.8672,1.60493 1.2751,2.42059 1.78657,3.57259 3.29839,7.2853 4.53201,11.08356 0.75442,2.79748 1.01236,3.45745 1.4647,6.34548 0.32389,2.06787 0.55321,4.6152 0.57729,6.70544 0.028,2.43154 -0.18275,4.49716 -0.36652,6.92059 -0.10822,1.21053 -0.20645,2.422 -0.32465,3.6316 -0.35077,3.58931 -0.4139,3.76607 -0.82454,7.35552 -0.42829,3.74378 -0.82106,7.49169 -1.20636,11.24008 -0.21251,2.3462 -0.41478,4.76088 -0.69123,7.10147 -0.352,2.98035 -0.76207,6.03433 -1.96197,8.81845 -0.32875,0.76279 -0.79277,1.45986 -1.18916,2.18978 -0.49364,0.5884 -0.88923,1.27551 -1.48092,1.7652 -1.13938,0.94296 -3.82935,2.66901 -5.46852,3.47291 -1.87826,0.92116 -3.8909,1.5242 -5.85508,2.22432 -4.79582,1.68822 -9.61201,3.38838 -14.65723,4.17661 -1.09986,0.14079 -2.19557,0.31912 -3.29958,0.42236 -3.60451,0.33707 -7.22892,0.27988 -10.84236,0.19256 -1.28957,-0.0312 -2.57914,-0.0654 -3.86815,-0.11455 -1.33749,-0.051 -2.67406,-0.12372 -4.01108,-0.18558 -1.41385,-0.0944 -2.82875,-0.1742 -4.24156,-0.28313 -5.00236,-0.3857 -9.989026,-0.93282 -14.960016,-1.61091 -1.84729,-0.25198 -3.69514,-0.50311 -5.53511,-0.80389 -1.7386,-0.2842 -3.46587,-0.63384 -5.198798,-0.95076 -4.766619,-0.95681 -9.537004,-1.91339 -14.268076,-3.0369 -0.962258,-0.22851 -1.915092,-0.49508 -2.873976,-0.73736 -4.304416,-1.08756 -0.740169,-0.153 -4.587782,-1.17503 -3.40641,-0.92202 -6.821631,-1.83534 -10.14499,-3.02996 -0.872639,-0.34591 -2.060663,-0.8016 -2.920024,-1.20008 -0.807133,-0.37426 -1.398749,-0.72479 -2.169721,-1.15007 -0.31201,-0.17211 -0.631454,-0.33114 -0.937567,-0.51353 -0.287951,-0.17158 -0.56225,-0.36509 -0.843375,-0.54764 -0.23898,-0.19319 -0.4904,-0.37194 -0.716939,-0.57959 -0.508463,-0.46606 -0.755264,-0.81445 -1.176472,-1.36173 -0.762178,-0.99031 -1.488075,-2.00695 -2.185006,-3.0443 -1.929913,-2.93814 -3.911801,-5.85154 -5.57321,-8.95412 -1.721728,-3.15495 -3.481488,-6.28935 -5.150731,-9.47262 -1.296765,-2.4467 -1.255779,-2.35302 -2.56591,-4.89514 -1.349767,-2.61904 -2.703775,-5.2457 -3.813297,-7.97871 -0.309838,-0.7632 -0.572191,-1.54483 -0.858287,-2.31724 -0.146474,-0.65539 -0.336466,-1.30255 -0.439418,-1.96617 -0.191153,-1.23214 -0.149849,-2.21601 -0.119149,-3.44835 0.04516,-1.81266 0.139448,-3.62423 0.236971,-5.43462 0.33805,-5.09811 0.629684,-10.20523 1.223902,-15.28094 0.132556,-0.81722 0.243768,-1.6382 0.397668,-2.45167 0.239522,-1.26606 0.652362,-2.96673 1.01372,-4.21674 0.466418,-1.61345 0.668189,-2.08159 1.257485,-3.64866 0.232235,-0.61757 0.467106,-1.23414 0.700659,-1.85121 1.626102,-4.37644 3.29538,-8.75848 5.463788,-12.9001 0.444508,-0.79272 0.87135,-1.59562 1.33353,-2.37817 2.17589,-3.68419 4.670496,-7.16677 7.280655,-10.55278 2.559728,-3.19507 5.208215,-6.3165 7.871127,-9.42591 1.504016,-1.68132 2.994358,-3.29566 4.710173,-4.76954 0.579893,-0.49812 1.153798,-1.00866 1.784951,-1.43999 1.221187,-0.83456 2.491663,-1.59561 3.763047,-2.35151 0.635328,-0.37773 1.302853,-0.69847 1.954281,-1.04771 0.658167,-0.28345 1.304854,-0.59519 1.974498,-0.85035 1.911377,-0.72828 3.893137,-1.14955 5.888842,-1.56438 0.61904,-0.12868 1.236612,-0.26496 1.858007,-0.38174 0.55299,-0.10392 1.109721,-0.18682 1.664581,-0.28023 0.852652,-0.13592 2.228512,-0.36266 3.095228,-0.4724 2.156201,-0.27302 4.330642,-0.32924 6.498297,-0.45539 1.287933,-0.0525 2.840498,-0.12109 4.122498,-0.1511 3.24662,-0.076 6.49443,9e-5 9.74144,-0.0393 4.08831,-0.0179 8.176286,-0.0668 12.264426,-0.10458 2.62691,-0.0142 5.26275,-0.0183 7.87441,0.30538 1.22809,0.17887 1.61193,0.21308 2.84258,0.48328 2.22288,0.48806 4.37621,1.22584 6.42413,2.22205 1.13305,0.63885 1.93847,1.04965 2.99088,1.81116 1.41122,1.02114 2.67119,2.25601 3.69328,3.66557 1.19268,1.6187 2.32588,3.28091 3.47131,4.93307 2.11081,3.09706 4.11289,6.2649 6.177,9.39315 2.80592,4.2572 5.72087,8.45291 8.21072,12.90784 0.77669,1.44103 1.48133,2.71759 2.20636,4.18548 1.39676,2.82788 2.59965,5.74548 3.80204,8.65935 1.86581,4.66263 3.83508,9.32485 4.85992,14.26265 0.3516,2.35215 0.48698,2.81154 0.57348,5.20895 0.0666,1.84611 -0.0239,3.93823 -0.0932,5.77757 -0.0397,1.05316 -0.0771,2.10648 -0.13142,3.15899 -0.056,1.08549 -0.13295,2.1698 -0.19942,3.25471 -0.24288,2.98102 -0.28586,3.87079 -0.65012,6.86063 -0.58393,4.79278 -1.47968,9.53863 -2.45635,14.2649 -0.72494,3.29911 -0.73613,3.5864 -1.64353,6.79854 -0.78492,2.77858 -1.6638,5.57803 -3.14793,8.07874 -0.41411,0.69775 -0.92416,1.33391 -1.38625,2.00087 -1.39652,1.65149 -1.5801,1.99365 -3.18868,3.41153 -2.72261,2.39984 -6.03176,4.12904 -9.31647,5.63167 -1.70501,0.66671 -2.29636,0.93461 -4.05833,1.47411 -2.96388,0.90751 -6.02333,1.49477 -9.06154,2.08484 -2.18618,0.36574 -4.37619,0.68441 -6.56997,1.00095 -0.64711,0.0934 -3.41087,0.48556 -4.089,0.56879 -0.66188,0.0812 -1.32585,0.14453 -1.98877,0.2168 -2.18757,0.25743 -4.3755,0.5287 -6.57065,0.71498 -1.96746,0.16696 -2.82778,0.1968 -4.81455,0.28976 -0.83754,0.0392 -1.675216,0.0753 -2.512826,0.11301 -5.1553,0.14162 -10.31222,0.10591 -15.469014,0.0863 -4.8049,-0.0332 -9.615522,-0.0684 -14.409388,-0.42836 -3.256357,-0.30395 -6.526226,-0.66281 -9.715299,-1.40724 -2.365396,-0.67439 -4.482751,-1.51947 -6.391188,-3.12821 -0.392705,-0.34506 -0.801227,-0.67292 -1.178115,-1.03519 -0.981035,-0.94298 -1.459799,-1.54079 -2.30913,-2.60864 -1.183852,-1.48843 -2.324806,-3.01449 -3.369953,-4.60401 -1.8572,-2.7706 -3.675374,-5.57039 -5.066689,-8.61251 -0.867116,-1.80974 -1.715979,-3.62393 -2.466591,-5.48621 -0.814877,-2.02172 -1.046469,-2.72829 -1.747472,-4.8356 -0.311171,-0.93542 -0.611317,-1.87447 -0.916977,-2.81171 -0.864868,-2.97109 -1.678004,-5.95555 -2.531915,-8.92977 -2.469726,-8.60217 0.735968,2.57213 -1.62565,-5.49687 -0.229237,-0.78324 -0.44301,-1.57092 -0.664514,-2.35638 -0.601012,-2.14864 -1.187693,-4.27013 -1.280353,-6.51378 -0.01669,-0.40403 0.0024,-0.80876 0.0041,-1.21313 0.0019,-0.42527 0.0046,-0.85053 0.0069,-1.2758 0.02716,-3.41824 0.05162,-6.83658 0.116528,-10.25436 0.09465,-4.21928 0.126048,-8.47904 1.045731,-12.61893 0.490731,-1.84404 0.500113,-2.03242 1.148165,-3.84399 1.023604,-2.86137 2.377869,-5.58787 3.597458,-8.36705 1.574061,-3.50512 0.513254,-1.17431 2.13986,-4.67026 0.69116,-1.48545 1.345811,-2.97398 2.127493,-4.41552 0.357561,-0.65941 0.748546,-1.30031 1.13891,-1.94084 0.350461,-0.57506 0.722148,-1.13691 1.083222,-1.70537 0.35964,-0.50904 0.708173,-1.02612 1.078918,-1.52713 1.466308,-1.98149 3.115667,-3.82679 4.815665,-5.60827 0.601181,-0.60254 0.970042,-0.99605 1.611406,-1.54779 0.927989,-0.7983 1.943533,-1.50031 2.957898,-2.18173 0.62026,-0.44624 1.22985,-0.94997 1.883498,-1.34658 1.399129,-0.84894 2.807552,-1.70225 4.279466,-2.42389 1.573448,-0.73927 3.183154,-1.41005 4.841734,-1.93512 1.497132,-0.44143 2.984193,-0.91787 4.494562,-1.31311 1.498859,-0.3594 3.033559,-0.61253 4.5794,-0.5954 1.994583,0.008 3.989211,0.0102 5.983791,7.9e-4 1.668822,-0.0105 3.33812,0.004 5.006435,-0.0448 0,0 -2.191933,1.59253 -2.191933,1.59253 z"
       id="path815"
       style="opacity:1;fill:#080303;fill-opacity:1;stroke:none;stroke-width:1;stroke-linejoin:round;stroke-miterlimit:4;stroke-dasharray:none;stroke-dashoffset:0;stroke-opacity:1" />
  </g>
</svg>
